<svg xmlns="http://www.w3.org/2000/svg" version="1.1" xmlns:xlink="http://www.w3.org/1999/xlink" xmlns:svgjs="http://svgjs.dev/svgjs" width="1000" height="75" viewBox="0 0 1000 75"><g transform="matrix(1,0,0,1,-0.6060606060606233,-0.18382085520751446)"><svg viewBox="0 0 396 30" data-background-color="#dedede" preserveAspectRatio="xMidYMid meet" height="75" width="1000" xmlns="http://www.w3.org/2000/svg" xmlns:xlink="http://www.w3.org/1999/xlink"><defs></defs><g id="tight-bounds" transform="matrix(1,0,0,1,0.2400000000000091,0.07352898275777875)"><svg viewBox="0 0 395.52 29.852942675159237" height="29.852942675159237" width="395.52"><g><svg viewBox="0 0 395.52 29.852942675159237" height="29.852942675159237" width="395.52"><g><svg viewBox="0 0 395.52 29.852942675159237" height="29.852942675159237" width="395.52"><g><svg viewBox="0 0 395.52 29.852942675159237" height="29.852942675159237" width="395.52"><g><svg viewBox="0 0 395.52 29.852942675159237" height="29.852942675159237" width="395.52"><g transform="matrix(1,0,0,1,0,0)"><svg width="395.52" viewBox="6.349999904632568 -35.54999923706055 470.9700012207031 35.54999923706055" height="29.852942675159237" data-palette-color="#000000"><path d="M6.35-34.8L20.95-34.8Q24.25-34.8 26.2-33.8L26.2-33.8Q28.55-32.6 29.83-30.5 31.1-28.4 31.1-25.8L31.1-25.8Q31.1-23.35 29.8-21.28 28.5-19.2 26.25-18L26.25-18Q28.95-17.05 30.8-14.7 32.65-12.35 32.65-9.4L32.65-9.4Q32.65-6.8 31.33-4.63 30-2.45 27.8-1.2L27.8-1.2Q26.7-0.6 25.35-0.3 24 0 21.75 0L21.75 0 6.35 0 6.35-34.8ZM61.05-12.35L69.9 0 43.15 0 43.15-34.8 56.7-34.8Q61.05-34.8 63.8-33.25L63.8-33.25Q66.5-31.75 68-29.15 69.5-26.55 69.5-23.4L69.5-23.4Q69.5-19.5 67.1-16.43 64.7-13.35 61.05-12.35L61.05-12.35ZM56.75-32.95L46.3-32.95 59.9-13.95Q63.25-14.65 65.45-17.3 67.65-19.95 67.65-23.4L67.65-23.4Q67.65-26.15 66.3-28.4 64.95-30.65 62.5-31.85L62.5-31.85Q60.3-32.95 56.75-32.95L56.75-32.95ZM57.85-13.8L45-31.75 45-13.8 57.85-13.8ZM45-11.95L45-1.85 66.4-1.85 59.1-12 57.55-11.95 45-11.95ZM91.59-14.25L77.65-34.8 107.34-34.8 93.45-14.25 93.45 0 91.59 0 91.59-14.25ZM129.49-35.55L145.89 0 113.09 0 129.49-35.55ZM129.49-31.15L115.99-1.85 142.99-1.85 129.49-31.15ZM181.04-0.05L152.94-0.05 152.94-34.85 154.89-34.85 179.19-11.2 179.19-34.85 181.04-34.85 181.04-0.05ZM228.34-34.8L242.94-34.8Q246.24-34.8 248.19-33.8L248.19-33.8Q250.54-32.6 251.81-30.5 253.09-28.4 253.09-25.8L253.09-25.8Q253.09-23.35 251.79-21.28 250.49-19.2 248.24-18L248.24-18Q250.94-17.05 252.79-14.7 254.64-12.35 254.64-9.4L254.64-9.4Q254.64-6.8 253.31-4.63 251.99-2.45 249.79-1.2L249.79-1.2Q248.69-0.6 247.34-0.3 245.99 0 243.74 0L243.74 0 228.34 0 228.34-34.8ZM264.98 0L264.98-34.8 290.33-34.8 290.33-26 274.08-26 274.08-21.6 287.58-21.6 287.58-13.25 274.08-13.25 274.08-8.8 290.33-8.8 290.33 0 264.98 0ZM320.03-12.35L328.88 0 302.13 0 302.13-34.8 315.68-34.8Q320.03-34.8 322.78-33.25L322.78-33.25Q325.48-31.75 326.98-29.15 328.48-26.55 328.48-23.4L328.48-23.4Q328.48-19.5 326.08-16.43 323.68-13.35 320.03-12.35L320.03-12.35ZM315.73-32.95L305.28-32.95 318.88-13.95Q322.23-14.65 324.43-17.3 326.63-19.95 326.63-23.4L326.63-23.4Q326.63-26.15 325.28-28.4 323.93-30.65 321.48-31.85L321.48-31.85Q319.28-32.95 315.73-32.95L315.73-32.95ZM316.83-13.8L303.98-31.75 303.98-13.8 316.83-13.8ZM303.98-11.95L303.98-1.85 325.38-1.85 318.08-12 316.53-11.95 303.98-11.95ZM366.48-34.8L351.98-20.3 366.48 0 338.48 0 338.48-34.8 366.48-34.8ZM362.93-1.85L350.68-19 340.33-8.65 340.33-1.85 362.93-1.85ZM379.03-8.85L403.68-8.85 403.68 0 377.18 0 377.18-34.8 379.03-34.8 379.03-8.85ZM412.97 0L412.97-34.8 438.32-34.8 438.32-26 422.07-26 422.07-21.6 435.57-21.6 435.57-13.25 422.07-13.25 422.07-8.8 438.32-8.8 438.32 0 412.97 0ZM461.57-14.25L447.62-34.8 477.32-34.8 463.42-14.25 463.42 0 461.57 0 461.57-14.25Z" opacity="1" transform="matrix(1,0,0,1,0,0)" fill="#000000" class="undefined-text-0" data-fill-palette-color="primary" id="text-0"></path></svg></g></svg></g></svg></g></svg></g></svg></g></svg><rect width="395.52" height="29.852942675159237" fill="none" stroke="none" visibility="hidden"></rect></g></svg></g></svg>